<svg xmlns="http://www.w3.org/2000/svg" width="68" height="57" viewBox="0 0 68 57"><g><g><g><g><g><path fill="#2d3235" d="M56.611 5.46c2.078 0 3.715.998 3.715 3.682v.098c0 2.684-1.686 3.715-3.846 3.715h-1.833v3.796c0 .442-.54.67-1.063.67-.54 0-1.064-.228-1.064-.67V6.115c0-.344.311-.655.802-.655zm1.587 3.747c0-1.276-.654-1.881-1.718-1.881h-1.833v3.96h1.833c1.064 0 1.718-.606 1.718-1.882z"/></g></g></g><g><g><g><path fill="#2d3235" d="M38.86 9.617A16.339 16.339 0 0 0 27.23 4.8c-4.392 0-8.522 1.71-11.629 4.817a.96.96 0 1 0 1.358 1.358A14.432 14.432 0 0 1 27.23 6.72c3.88 0 7.528 1.511 10.272 4.255a.958.958 0 0 0 1.358 0 .96.96 0 0 0 0-1.358z"/></g></g></g><g><g><g><path fill="#2d3235" d="M34.9 13.572c-4.229-4.23-11.11-4.23-15.339 0a.96.96 0 1 0 1.358 1.357c3.48-3.48 9.143-3.48 12.624 0a.957.957 0 0 0 1.357 0 .96.96 0 0 0 0-1.357z"/></g></g></g><g><g><g><path fill="#2d3235" d="M31.005 17.47a5.34 5.34 0 0 0-7.544 0 .96.96 0 1 0 1.358 1.357 3.419 3.419 0 0 1 4.829 0 .956.956 0 0 0 1.357 0 .96.96 0 0 0 0-1.357z"/></g></g></g><g><g><g><path fill="#2d3235" d="M48.98 38.6c0 .788-.643 1.43-1.432 1.43H21.227a.96.96 0 0 1 0-1.92h3.19v-7.05h-2.61a9.63 9.63 0 0 0-6.84 2.826 17.474 17.474 0 0 1-4.286 3.134.579.579 0 0 0 .267 1.09h3.973a.96.96 0 0 1 0 1.92h-3.973a2.5 2.5 0 0 1-2.498-2.498c0-.935.516-1.784 1.347-2.215a15.557 15.557 0 0 0 3.814-2.791 11.54 11.54 0 0 1 8.196-3.386h11.654c2.325 0 4.573.688 6.5 1.99l6.35 4.29c.392.265.802.515 1.218.743a2.784 2.784 0 0 1 1.45 2.436zm-2.078-.49a.895.895 0 0 0-.298-.264 17.623 17.623 0 0 1-1.368-.836l-6.35-4.29a9.657 9.657 0 0 0-5.425-1.66h-7.125v7.05z"/></g></g></g><g><g><g><path fill="#2d3235" d="M28.715 41.49H25.75a.96.96 0 0 0 0 1.92h2.965a.96.96 0 0 0 0-1.92z"/></g></g></g><g><g><g><path fill="#2d3235" d="M66.844 40.685c.542.9.828 1.929.829 2.978v4.98a3.563 3.563 0 0 1-3.56 3.559h-1.82a6.328 6.328 0 0 1-1.624 2.775 6.327 6.327 0 0 1-4.504 1.865c-1.7 0-3.3-.662-4.503-1.865a6.327 6.327 0 0 1-1.623-2.775h-31.88a6.349 6.349 0 0 1-6.127 4.637c-1.63 0-3.261-.62-4.502-1.862a6.332 6.332 0 0 1-1.748-3.298l-3.824-1.7A2.811 2.811 0 0 1 .29 47.414v-9.297a4.467 4.467 0 0 1 3.536-4.353l1.378-.289a12.606 12.606 0 0 0 6.328-3.416 14.463 14.463 0 0 1 10.273-4.244H33.46c2.915 0 5.732.863 8.148 2.494l6.35 4.29c1.136.768 2.85 1.829 4.608 2.178l1.274.254V23.464h-7.272a2.397 2.397 0 0 1-2.395-2.394v-5.363a.96.96 0 1 1 1.92 0v5.363c0 .261.213.475.475.475h18.695a.476.476 0 0 0 .475-.475V2.375a.476.476 0 0 0-.475-.475H46.567a.475.475 0 0 0-.475.475v7.091a.96.96 0 0 1-1.92 0V2.375A2.397 2.397 0 0 1 46.567-.02H65.26a2.397 2.397 0 0 1 2.395 2.395v18.694a2.397 2.397 0 0 1-2.395 2.395h-6.413v12.562l2.478.492a7.9 7.9 0 0 1 5.215 3.664zM55.76 35.411l1.17.233v-12.18h-1.17zM15.755 48.038l-.017-.025a4.598 4.598 0 0 0-.24-.326c-.026-.034-.055-.067-.083-.1-.023-.027-.045-.054-.07-.08a4.527 4.527 0 0 0-.331-.335l-.027-.022a4.524 4.524 0 0 0-.146-.126l-.006-.004a4.457 4.457 0 0 0-5.599-.006l-.013.01a4.417 4.417 0 0 0-.137.118l-.036.03-.133.128-.03.029-.013.013a4.471 4.471 0 0 0-.151.16c-.02.021-.038.044-.056.065l-.098.116-.063.081-.08.105-.064.094a4.043 4.043 0 0 0-.358.624l-.018.04a4.455 4.455 0 0 0 .9 4.992 4.42 4.42 0 0 0 3.146 1.303 4.42 4.42 0 0 0 3.146-1.303 4.456 4.456 0 0 0 .577-5.58zm44.133 0a3.67 3.67 0 0 0-.167-.236 4.582 4.582 0 0 0-.09-.115c-.026-.034-.054-.067-.083-.1-.023-.027-.045-.054-.07-.08a4.42 4.42 0 0 0-3.313-1.48 4.419 4.419 0 0 0-3.313 1.48l-.07.08a4.55 4.55 0 0 0-.22.279c-.035.049-.07.098-.103.147l-.016.025a4.455 4.455 0 0 0 .577 5.581 4.419 4.419 0 0 0 3.145 1.303 4.42 4.42 0 0 0 3.146-1.303 4.456 4.456 0 0 0 .577-5.58zm5.865-4.375c0-.7-.191-1.387-.553-1.987l-.303-.503a5.977 5.977 0 0 0-3.945-2.772l-8.76-1.742c-2.1-.417-4.036-1.61-5.31-2.47l-6.35-4.29a12.591 12.591 0 0 0-7.073-2.165H21.805a12.555 12.555 0 0 0-8.918 3.684 14.522 14.522 0 0 1-7.289 3.935l-1.378.289a2.54 2.54 0 0 0-2.01 2.474v9.297c0 .35.207.67.528.812l2.992 1.33a6.328 6.328 0 0 1 .663-2.04l.004-.008c.046-.087.094-.174.145-.26l.008-.015c.104-.174.215-.344.335-.508l.042-.056a6.556 6.556 0 0 1 .337-.414l.059-.066a6.349 6.349 0 0 1 4.71-2.08 6.363 6.363 0 0 1 4.724 2.096l.033.038c.061.069.122.138.18.21l.012.015a6.29 6.29 0 0 1 1.418 3.815h31.398a6.29 6.29 0 0 1 1.415-3.811l.016-.02c.055-.068.112-.134.17-.2l.043-.048c.061-.068.124-.134.189-.2l.031-.032a6.324 6.324 0 0 1 4.503-1.865 6.33 6.33 0 0 1 4.503 1.865l.032.033c.065.065.128.131.189.199l.043.05c.058.065.115.13.17.197l.017.022a6.288 6.288 0 0 1 1.414 3.81h1.58c.904 0 1.64-.736 1.64-1.64z"/></g></g></g><g><g><g><path fill="#2d3235" d="M14.095 52.535c-.55.55-1.282.854-2.06.854-.78 0-1.511-.304-2.061-.854a2.895 2.895 0 0 1-.854-2.06c0-.78.303-1.511.854-2.061a2.895 2.895 0 0 1 2.06-.854c.779 0 1.51.303 2.061.854a2.918 2.918 0 0 1 0 4.121zm-1.358-2.764a.988.988 0 0 0-.703-.291.988.988 0 0 0-.703.291.987.987 0 0 0-.291.703c0 .266.103.516.291.703a.987.987 0 0 0 .703.292.996.996 0 0 0 .703-1.698z"/></g></g></g><g><g><g><path fill="#2d3235" d="M59.077 50.474c0 .779-.303 1.51-.853 2.061-.55.55-1.282.854-2.061.854-.779 0-1.51-.304-2.06-.854a2.918 2.918 0 0 1 0-4.121 2.895 2.895 0 0 1 2.06-.854c.779 0 1.51.303 2.06.854.551.55.854 1.282.854 2.06zm-1.92 0a.988.988 0 0 0-.29-.703.988.988 0 0 0-.704-.291.996.996 0 1 0 .703 1.698.987.987 0 0 0 .291-.704z"/></g></g></g></g></g></svg>