<svg xmlns="http://www.w3.org/2000/svg" width="63" height="70" viewBox="0 0 63 70"><g><g><g><path fill="#2d3235" d="M61.833 0C62.478 0 63 .522 63 1.167v67.666c0 .645-.522 1.167-1.167 1.167H1.167A1.167 1.167 0 0 1 0 68.833V1.167C0 .522.522 0 1.167 0h23.95a1.167 1.167 0 0 1 0 2.333H2.332v31.5h28V1.167C30.333.522 30.856 0 31.5 0zm-1.166 67.667v-31.5H40.076a1.167 1.167 0 0 1 0-2.334h20.59v-31.5h-28V62.38a1.167 1.167 0 0 1-2.333 0V36.167h-28v31.5z"/></g><g><path fill="#2d3235" d="M38.797 22.025c.644 0 1.166-.522 1.166-1.167v-2.041a1.167 1.167 0 0 0-2.333 0v2.041c0 .645.522 1.167 1.167 1.167z"/></g><g><path fill="#2d3235" d="M41.857 9.483h9.625a1.167 1.167 0 0 0 0-2.333h-9.625a1.167 1.167 0 0 0 0 2.333z"/></g><g><path fill="#2d3235" d="M49.145 12.98h-4.958a1.167 1.167 0 0 0 0 2.333h4.958a1.167 1.167 0 0 0 0-2.333z"/></g><g><path fill="#2d3235" d="M38.797 51.48c-.645 0-1.167.522-1.167 1.167v2.041a1.167 1.167 0 0 0 2.333 0v-2.041c0-.645-.522-1.167-1.166-1.167z"/></g><g><path fill="#2d3235" d="M51.482 40.98h-9.625a1.167 1.167 0 0 0 0 2.333h9.625a1.167 1.167 0 0 0 0-2.333z"/></g><g><path fill="#2d3235" d="M49.145 46.81h-4.958a1.167 1.167 0 0 0 0 2.333h4.958a1.167 1.167 0 0 0 0-2.333z"/></g><g><path fill="#2d3235" d="M7.29 18.817v2.041a1.167 1.167 0 0 0 2.333 0v-2.041a1.167 1.167 0 0 0-2.333 0z"/></g><g><path fill="#2d3235" d="M22.308 8.317c0-.645-.522-1.167-1.166-1.167h-9.625a1.167 1.167 0 0 0 0 2.333h9.625c.644 0 1.166-.522 1.166-1.166z"/></g><g><path fill="#2d3235" d="M13.857 12.98a1.167 1.167 0 0 0 0 2.333h4.958a1.167 1.167 0 0 0 0-2.333z"/></g><g><path fill="#2d3235" d="M8.457 51.48c-.645 0-1.167.522-1.167 1.167v2.041a1.167 1.167 0 0 0 2.333 0v-2.041c0-.645-.522-1.167-1.166-1.167z"/></g><g><path fill="#2d3235" d="M21.142 40.98h-9.625a1.167 1.167 0 0 0 0 2.333h9.625a1.167 1.167 0 0 0 0-2.333z"/></g><g><path fill="#2d3235" d="M18.815 46.81h-4.958a1.167 1.167 0 0 0 0 2.333h4.958a1.167 1.167 0 0 0 0-2.333z"/></g></g></g></svg>