<svg xmlns="http://www.w3.org/2000/svg" width="63" height="63" viewBox="0 0 63 63"><g><g><g><path fill="#2d3235" d="M61.77 55.125c.68 0 1.23.551 1.23 1.23v5.414c0 .68-.55 1.23-1.23 1.23H50.08c-.338 0-.661-.138-.893-.384L45.88 59.12a32.622 32.622 0 0 1-3.343 3.563c-.226.204-.52.317-.824.317h-33.1a3.695 3.695 0 0 1-3.691-3.692 3.698 3.698 0 0 1 2.46-3.48V43.174L.02 1.444A1.228 1.228 0 0 1 1.23 0l11.75.001c3.946.195 6.214 4.06 6.214 7.628 0 1.222-.072 2.305-.194 3.272a4.924 4.924 0 0 1 4.016 3.252l5.473 15.624h3.714a3.697 3.697 0 0 1 3.48-2.46h9.843a3.695 3.695 0 0 1 3.692 3.69 3.696 3.696 0 0 1-3.692 3.692h-9.843a3.696 3.696 0 0 1-3.48-2.46h-2.853l1.724 4.921h18.39a4.928 4.928 0 0 1 4.922 4.922 4.927 4.927 0 0 1-4.922 4.922h-1.35c.244.447.451.948.62 1.492l5.032 6.629zM35.684 29.777c-.679 0-1.23.553-1.23 1.23 0 .68.551 1.231 1.23 1.231h9.843a1.232 1.232 0 0 0 0-2.46zm-7.875 9.844a2.464 2.464 0 0 0-2.461 2.461c0 1.367 1.253 2.46 2.605 2.46h21.512a2.464 2.464 0 0 0 2.46-2.46 2.464 2.464 0 0 0-2.46-2.461zM17.38 16.522a28.976 28.976 0 0 1-.808 1.565L23.92 39.07a4.916 4.916 0 0 1 3.888-1.909h.659l-7.773-22.194a2.465 2.465 0 0 0-2.149-1.64 17.37 17.37 0 0 1-1.165 3.196zm-2.338 4.642c-.747 2.06-.877 4.622.65 9.474 1.64 5.21 4.158 8.47 6.329 10.453zM4.869 14.765H15.47c.642-1.53 1.263-3.706 1.263-7.137 0-4.682-3.348-5.128-3.856-5.168H2.698zM31.623 58.2c-.678 0-1.23-.552-1.23-1.23 0-.678.552-1.23 1.23-1.23h13.663c.854-1.324 1.472-2.679 1.472-3.815 0-2.668-1.014-4.922-2.215-4.922H27.809c-2.338 0-4.845-2.039-5.851-2.782-2.715-2.004-6.413-5.86-8.612-12.845-.729-2.314-1.32-4.741-1.303-7.183.017-2.585.967-4.75 2.195-6.968H5.303l4.522 25.626c.013.071.019.143.019.214V55.74h11.935c.679 0 1.23.553 1.23 1.23 0 .679-.551 1.231-1.23 1.231H8.081a1.23 1.23 0 0 0 .532 2.338H41.23a31.353 31.353 0 0 0 2.203-2.338zm28.916-.615h-7.383a1.23 1.23 0 0 1-.98-.487l-3.07-4.043c-.256 1.352-.932 2.743-1.758 4.034l3.262 3.449h9.93z"/></g><g><path fill="#2d3235" d="M26.7 55.74c-.677 0-1.23.553-1.23 1.23 0 .679.553 1.23 1.23 1.23.679 0 1.23-.551 1.23-1.23 0-.677-.551-1.23-1.23-1.23z"/></g></g></g></svg>