<svg xmlns="http://www.w3.org/2000/svg" width="71" height="50" viewBox="0 0 71 50"><g><g><g><path fill="#2d3235" d="M69.787 14.353C60.532 5.097 48.205 0 35.08 0 21.957 0 9.63 5.096.375 14.353c-.5.5-.5 1.308 0 1.807.5.5 1.307.5 1.807 0C10.955 7.386 22.639 2.554 35.08 2.554s24.126 4.832 32.9 13.605a1.275 1.275 0 0 0 1.806 0c.5-.498.5-1.307 0-1.806z"/></g><g><path fill="#2d3235" d="M7.885 21.866a1.276 1.276 0 1 0 1.807 1.807c13.998-14 36.776-14 50.775 0a1.276 1.276 0 1 0 1.807-1.807C47.28 6.873 22.88 6.87 7.884 21.866z"/></g><g><path fill="#2d3235" d="M35.078 21.23c-7.443 0-14.433 2.892-19.683 8.14-.5.5-.5 1.308 0 1.808s1.307.5 1.807 0c4.767-4.767 11.115-7.392 17.876-7.392 6.76 0 13.109 2.625 17.876 7.392a1.274 1.274 0 0 0 1.807 0c.5-.5.5-1.308 0-1.807-5.25-5.25-12.24-8.141-19.683-8.141z"/></g><g><path fill="#2d3235" d="M43.453 41.632c0 4.617-3.756 8.372-8.372 8.372s-8.371-3.755-8.371-8.372 3.755-8.372 8.37-8.372c4.618 0 8.373 3.755 8.373 8.372zm-2.556-.001a5.824 5.824 0 0 0-5.816-5.817 5.823 5.823 0 0 0-5.815 5.817 5.822 5.822 0 0 0 5.815 5.816 5.823 5.823 0 0 0 5.816-5.816z"/></g></g></g></svg>