<svg xmlns="http://www.w3.org/2000/svg" width="63" height="60" viewBox="0 0 63 60"><g><g><g><g><path fill="#2d3235" d="M62.385 32.887c.553 5.566-.81 11.201-3.84 15.867a1.22 1.22 0 1 1-2.048-1.33c5.67-8.732 4.434-20.421-2.94-27.795-8.663-8.663-22.76-8.663-31.422 0-8.664 8.663-8.664 22.76 0 31.423 7.383 7.383 19.082 8.613 27.818 2.924a1.221 1.221 0 0 1 1.333 2.046 24.72 24.72 0 0 1-15.878 3.859 24.706 24.706 0 0 1-15-7.103 24.517 24.517 0 0 1-5.616-8.684H6.104a1.22 1.22 0 0 1 0-2.442h7.91a24.79 24.79 0 0 1-.763-4.692H7.813a1.22 1.22 0 0 1 0-2.442h5.399c.052-1.576.254-3.148.606-4.692H1.22a1.22 1.22 0 0 1 0-2.442h13.287a24.474 24.474 0 0 1 2.166-4.692H9.543a1.22 1.22 0 0 1 0-2.442h8.7c.03 0 .062.002.092.005a24.786 24.786 0 0 1 2.073-2.353A24.514 24.514 0 0 1 32.43 11.29V8.18a4.158 4.158 0 0 1-3.149-4.028A4.155 4.155 0 0 1 33.432 0h8.79a4.155 4.155 0 0 1 4.151 4.15 4.158 4.158 0 0 1-3.149 4.029v3.102a24.514 24.514 0 0 1 12.06 6.621 24.708 24.708 0 0 1 7.1 14.985zM33.432 5.86h8.79c.943 0 1.71-.767 1.71-1.71 0-.942-.767-1.708-1.71-1.708h-8.79c-.942 0-1.709.766-1.709 1.709 0 .942.767 1.71 1.71 1.71zm1.44 5.01a24.878 24.878 0 0 1 5.91-.005V8.302h-5.91z"/></g><g><path fill="#2d3235" d="M54.42 50.69a1.225 1.225 0 0 0-1.22 1.22 1.225 1.225 0 0 0 1.22 1.222c.322 0 .636-.13.864-.358a1.23 1.23 0 0 0 .358-.863c0-.321-.13-.636-.358-.863a1.232 1.232 0 0 0-.863-.358z"/></g><g><path fill="#2d3235" d="M56.787 35.339c0 10.442-8.496 18.938-18.938 18.938-10.443 0-18.939-8.496-18.939-18.938 0-10.443 8.496-18.939 18.939-18.939 10.442 0 18.938 8.496 18.938 18.939zm-2.441 0c0-9.097-7.4-16.497-16.497-16.497s-16.497 7.4-16.497 16.497c0 9.096 7.4 16.497 16.497 16.497 9.096 0 16.497-7.401 16.497-16.497z"/></g><g><path fill="#2d3235" d="M45.569 25.888a1.22 1.22 0 0 1 1.726 1.726l-.177.177-5.87 5.87a3.77 3.77 0 0 1 .392 1.675 3.798 3.798 0 0 1-3.794 3.794 3.798 3.798 0 0 1-3.794-3.794c0-.6.142-1.17.392-1.675l-2.706-2.707a1.22 1.22 0 0 1 1.726-1.726l2.706 2.706a3.77 3.77 0 0 1 1.676-.391c.601 0 1.17.141 1.676.391zm-6.371 9.449c0-.746-.606-1.352-1.352-1.352-.745 0-1.352.606-1.352 1.352 0 .745.607 1.351 1.352 1.351.746 0 1.352-.606 1.352-1.351z"/></g><g><path fill="#2d3235" d="M50.902 34.13H49.77a1.22 1.22 0 0 0 0 2.442h1.13a1.22 1.22 0 0 0 0-2.442z"/></g><g><path fill="#2d3235" d="M25.922 34.1H24.79a1.22 1.22 0 0 0 0 2.442h1.13a1.22 1.22 0 0 0 0-2.442z"/></g><g><path fill="#2d3235" d="M37.86 24.643a1.22 1.22 0 0 0 1.222-1.221V22.29a1.22 1.22 0 0 0-2.442 0v1.13c0 .675.547 1.222 1.22 1.222z"/></g><g><path fill="#2d3235" d="M37.83 46.04a1.22 1.22 0 0 0-1.22 1.22v1.132a1.22 1.22 0 0 0 2.442 0V47.26a1.22 1.22 0 0 0-1.221-1.221z"/></g><g><path fill="#2d3235" d="M1.22 41.65c-.32 0-.635.13-.862.358A1.23 1.23 0 0 0 0 42.87c0 .322.13.636.358.863.227.227.542.358.863.358.32 0 .636-.131.863-.358a1.23 1.23 0 0 0 .358-.863c0-.321-.131-.636-.358-.863a1.23 1.23 0 0 0-.863-.358z"/></g></g></g></g></svg>