<svg xmlns="http://www.w3.org/2000/svg" width="65" height="47" viewBox="0 0 65 47"><g><g><g><g><g><path fill="#2d3235" d="M58.75 0a5.347 5.347 0 0 1 5.341 5.34V41.66A5.347 5.347 0 0 1 58.751 47H5.34A5.347 5.347 0 0 1 0 41.659V5.341A5.347 5.347 0 0 1 5.341 0zm3.205 41.66V5.34a3.205 3.205 0 0 0-3.205-3.204H5.341a3.205 3.205 0 0 0-3.205 3.205v36.318a3.205 3.205 0 0 0 3.205 3.205h53.41a3.205 3.205 0 0 0 3.204-3.205z"/></g><g><path fill="#2d3235" d="M44.87 10.572a3.197 3.197 0 0 1-3.012 3.291l-1.268 4.442v1.988a3.205 3.205 0 0 1-3.205 3.204H26.703a3.205 3.205 0 0 1-3.204-3.204v-1.988L22.23 13.86a3.205 3.205 0 1 1 3.398-3.244l2.735.911 1.217-2.03a3.172 3.172 0 0 1-.741-2.023 3.205 3.205 0 0 1 6.409 0 3.171 3.171 0 0 1-.741 2.026l1.216 2.03 2.736-.912a3.204 3.204 0 0 1 3.198-3.144 3.197 3.197 0 0 1 3.211 3.097zM30.975 7.475a1.068 1.068 0 1 0 2.136 0 1.068 1.068 0 0 0-2.136 0zm-6.032 5.166c-.187.245-.409.46-.658.641l1.086 3.806h13.344l1.086-3.805c-.249-.18-.47-.396-.658-.64l-3.558 1.186a1.068 1.068 0 0 1-1.254-.464l-1.647-2.751a3.185 3.185 0 0 1-1.282 0l-1.647 2.75c-.257.43-.779.624-1.254.465zm-2.513-.894a1.068 1.068 0 1 0 0-2.136 1.068 1.068 0 0 0 0 2.136zm16.022 8.546v-1.068H25.636v1.068c0 .59.478 1.068 1.068 1.068h10.682c.59 0 1.068-.478 1.068-1.068zm4.273-9.614a1.068 1.068 0 1 0-2.136 0 1.068 1.068 0 0 0 2.136 0z"/></g><g><path fill="#2d3235" d="M8.545 32.05a3.205 3.205 0 1 1 0-6.41h5.34a3.205 3.205 0 0 1 0 6.41zm0-4.274a1.068 1.068 0 1 0 0 2.137h5.34a1.068 1.068 0 0 0 0-2.137z"/></g><g><path fill="#2d3235" d="M27.776 25.64a3.205 3.205 0 0 1 0 6.41h-5.341a3.205 3.205 0 0 1 0-6.41zm0 4.273a1.068 1.068 0 0 0 0-2.137h-5.341a1.068 1.068 0 0 0 0 2.137z"/></g><g><path fill="#2d3235" d="M41.656 25.64a3.205 3.205 0 1 1 0 6.41h-5.341a3.205 3.205 0 0 1 0-6.41zm0 4.273a1.068 1.068 0 1 0 0-2.137h-5.341a1.068 1.068 0 0 0 0 2.137z"/></g><g><path fill="#2d3235" d="M55.546 25.64a3.205 3.205 0 1 1 0 6.41h-5.341a3.205 3.205 0 0 1 0-6.41zm0 4.273a1.068 1.068 0 1 0 0-2.137h-5.341a1.068 1.068 0 1 0 0 2.137z"/></g><g><path fill="#2d3235" d="M25.635 35.25H6.408a1.068 1.068 0 1 0 0 2.136h19.227a1.068 1.068 0 1 0 0-2.136z"/></g><g><path fill="#2d3235" d="M17.09 39.52H6.408a1.068 1.068 0 1 0 0 2.136H17.09a1.068 1.068 0 1 0 0-2.136z"/></g></g></g></g></g></svg>