<svg xmlns="http://www.w3.org/2000/svg" width="26" height="26" viewBox="0 0 26 26"><g><g><g/><g/><g opacity=".2"><g opacity=".04"><path fill="#7cc0de" d="M13.082 17.88c-3.572 2.843-7.55 4.304-11.286 4.385C-.964 17.555-.396 6.108 2.852 2.78 5.775-.225 14.95-.794 20.227 1.074c1.3 5.359-1.38 12.179-7.145 16.807z"/></g></g><g><path fill="#7cc0de" d="M11.129 20.237c-.568 0-1.137-.243-1.461-.73L5.12 13.66c-.65-.812-.487-1.95.325-2.599.811-.65 1.948-.487 2.598.325l3.085 3.979 6.82-8.85c.65-.812 1.787-.975 2.598-.325.812.65.975 1.786.325 2.598l-8.281 10.717c-.406.406-.894.731-1.462.731z"/></g></g></g></svg>