<svg width="21" height="21" viewBox="0 0 21 21" fill="none" xmlns="http://www.w3.org/2000/svg">
<path d="M10.5026 0H10.4974C4.70794 0 0 4.70925 0 10.5C0 12.7969 0.74025 14.9257 1.99894 16.6543L0.690375 20.5551L4.72631 19.2649C6.38663 20.3647 8.36719 21 10.5026 21C16.2921 21 21 16.2894 21 10.5C21 4.71056 16.2921 0 10.5026 0Z" fill="#4CAF50"/>
<path d="M16.6123 14.8274C16.359 15.5427 15.3536 16.1359 14.5517 16.3092C14.003 16.426 13.2864 16.5192 10.874 15.5191C7.78835 14.2407 5.80123 11.1051 5.64635 10.9017C5.49804 10.6982 4.39948 9.24137 4.39948 7.73462C4.39948 6.22787 5.16466 5.49418 5.4731 5.17918C5.72641 4.92062 6.1451 4.80249 6.54673 4.80249C6.67666 4.80249 6.79348 4.80905 6.89848 4.8143C7.20691 4.82743 7.36179 4.8458 7.56523 5.33274C7.81854 5.94305 8.43541 7.4498 8.50891 7.60468C8.58373 7.75955 8.65854 7.96955 8.55354 8.17299C8.4551 8.38299 8.36848 8.47618 8.2136 8.65468C8.05873 8.83318 7.91173 8.96968 7.75685 9.1613C7.6151 9.32799 7.45498 9.50649 7.63348 9.81493C7.81198 10.1168 8.42885 11.1235 9.3371 11.932C10.5092 12.9754 11.4594 13.3088 11.7994 13.4506C12.0527 13.5556 12.3545 13.5306 12.5396 13.3337C12.7745 13.0804 13.0646 12.6604 13.3599 12.247C13.5699 11.9504 13.835 11.9136 14.1133 12.0186C14.3968 12.1171 15.897 12.8586 16.2054 13.0122C16.5139 13.1671 16.7173 13.2406 16.7921 13.3705C16.8656 13.5004 16.8656 14.1107 16.6123 14.8274Z" fill="#FAFAFA"/>
</svg>
